<?xml version="1.0" standalone="no"?>
<!DOCTYPE svg PUBLIC "-//W3C//DTD SVG 20010904//EN"
 "http://www.w3.org/TR/2001/REC-SVG-20010904/DTD/svg10.dtd">
<svg version="1.0" xmlns="http://www.w3.org/2000/svg"
 width="512.000000pt" height="512.000000pt" viewBox="0 0 512.000000 512.000000"
 preserveAspectRatio="xMidYMid meet">

<g transform="translate(0.000000,512.000000) scale(0.100000,-0.100000)"
fill="#000000" stroke="none">
<path d="M2872 4628 c-354 -384 -632 -734 -865 -1088 -145 -222 -191 -305
-183 -335 14 -54 69 -80 116 -55 10 6 49 60 85 121 189 313 461 679 759 1019
140 160 278 310 285 310 10 0 225 -238 366 -405 586 -693 939 -1295 1035
-1765 43 -207 25 -459 -49 -678 -159 -475 -592 -850 -1093 -947 -132 -26 -324
-30 -448 -10 -181 29 -192 29 -217 5 -28 -26 -30 -79 -5 -109 32 -40 187 -65
402 -65 215 0 308 14 492 74 497 164 904 580 1043 1069 61 216 75 465 35 666
-108 548 -606 1384 -1227 2061 -146 158 -314 294 -365 294 -9 0 -84 -73 -166
-162z"/>
<path d="M1460 3123 c-254 -262 -545 -635 -712 -913 -134 -223 -209 -393 -254
-573 -44 -179 -31 -402 33 -580 152 -424 528 -707 973 -733 310 -19 613 97
836 320 185 184 300 436 320 697 23 324 -143 716 -521 1225 -115 155 -313 390
-436 517 -93 96 -108 107 -139 107 -29 0 -44 -10 -100 -67z m211 -245 c215
-239 444 -542 578 -766 180 -301 261 -547 247 -747 -17 -244 -111 -450 -283
-616 -125 -122 -264 -199 -430 -241 -121 -31 -332 -30 -444 0 -313 84 -539
287 -658 591 -55 138 -69 361 -31 506 88 343 363 778 807 1278 53 59 99 107
104 107 5 0 54 -51 110 -112z"/>
<path d="M835 1490 c-39 -15 -49 -38 -47 -112 6 -199 92 -381 252 -531 127
-120 289 -190 469 -204 76 -6 80 -5 105 20 56 56 17 137 -66 137 -70 0 -178
28 -253 64 -98 47 -180 118 -241 207 -60 88 -91 174 -104 283 -12 103 -16 114
-50 131 -32 17 -37 17 -65 5z"/>
</g>
</svg>
